<?xml version="1.0" encoding="UTF-8" standalone="no"?>
<!-- Created with Inkscape (http://www.inkscape.org/) -->

<svg
   xmlns:dc="http://purl.org/dc/elements/1.1/"
   xmlns:cc="http://creativecommons.org/ns#"
   xmlns:rdf="http://www.w3.org/1999/02/22-rdf-syntax-ns#"
   xmlns:svg="http://www.w3.org/2000/svg"
   xmlns="http://www.w3.org/2000/svg"
   xmlns:sodipodi="http://sodipodi.sourceforge.net/DTD/sodipodi-0.dtd"
   xmlns:inkscape="http://www.inkscape.org/namespaces/inkscape"
   id="svg2"
   version="1.1"
   inkscape:version="0.91 r13725"
   xml:space="preserve"
   width="200"
   height="200"
   viewBox="0 0 199.99999 199.99999"
   sodipodi:docname="HAX_200x200.svg"><metadata
     id="metadata8"><rdf:RDF><cc:Work
         rdf:about=""><dc:format>image/svg+xml</dc:format><dc:type
           rdf:resource="http://purl.org/dc/dcmitype/StillImage" /><dc:title></dc:title></cc:Work></rdf:RDF></metadata><defs
     id="defs6" /><sodipodi:namedview
     pagecolor="#ffffff"
     bordercolor="#666666"
     borderopacity="1"
     objecttolerance="10"
     gridtolerance="10"
     guidetolerance="10"
     inkscape:pageopacity="0"
     inkscape:pageshadow="2"
     inkscape:window-width="1920"
     inkscape:window-height="1017"
     id="namedview4"
     showgrid="false"
     inkscape:zoom="1.1917527"
     inkscape:cx="-24.899195"
     inkscape:cy="142.84056"
     inkscape:window-x="1912"
     inkscape:window-y="-8"
     inkscape:window-maximized="1"
     inkscape:current-layer="g10"
     fit-margin-top="0"
     fit-margin-left="0"
     fit-margin-right="0"
     fit-margin-bottom="0" /><g
     id="g10"
     inkscape:groupmode="layer"
     inkscape:label="HAX_logo_FA"
     transform="matrix(1.25,0,0,-1.25,-1493.76,1219.8432)"><g
       id="g12"
       transform="matrix(0.09118389,0,0,0.09118389,1269.7276,888.20751)"><path
         d="M 0,0 53.755,241.405 106.058,0 0,0 Z m 736.238,97.071 175.826,384.87 -229.555,0 -92.885,-242.283 -75.087,242.283 -203.653,0 114.12,-388.138 -124.332,-0.553 91.162,-267.615 -263.278,412.26 115.642,0 -85.086,244.046 -236.117,0 -155.887,-576.302 0,576.302 -229.395,0 0,-287.113 -127.997,0 0,287.113 -229.155,0 0,-795.715 229.155,0 0,295.317 127.997,0 0,-295.317 127.724,0 12.383,0 4.175,0 8.23,0 14.352,0 60.227,0 6.201,0 24.817,0 131.532,0 31.44,139.455 185.565,0 31.438,-139.455 72.305,0 165.965,0 65.04,0 101.383,242.578 99.112,-242.578 255.655,0 0,0.075 -199.019,410.77 z"
         style="fill:#000052;fill-opacity:1;fill-rule:nonzero;stroke:none"
         id="path14"
         inkscape:connector-curvature="0" /></g></g></svg>