<svg width="38" height="23" viewBox="0 0 38 23" fill="none" xmlns="http://www.w3.org/2000/svg">
<mask id="mask0" mask-type="alpha" maskUnits="userSpaceOnUse" x="13" y="0" width="17" height="19">
<path fill-rule="evenodd" clip-rule="evenodd" d="M16.7637 0H0V17.663H16.7637V0Z" transform="translate(13.2024 0.719727)" fill="white"/>
</mask>
<g mask="url(#mask0)">
<path fill-rule="evenodd" clip-rule="evenodd" d="M16.7637 17.6631H0V0H12.0276C14.6432 0 16.7637 2.23426 16.7637 4.9905V17.6631Z" transform="translate(13.2024 0.719666)" fill="#FF7A00"/>
</g>
<path fill-rule="evenodd" clip-rule="evenodd" d="M7.96982 12H0V0H3.16281C5.8176 0 7.96982 2.31502 7.96982 5.17064V12Z" transform="translate(29.5376 6.59998)" fill="#FFC752"/>
<path fill-rule="evenodd" clip-rule="evenodd" d="M0 2.7C0 1.20892 1.14696 0 2.56162 0C3.97649 0 5.12345 1.20892 5.12345 2.7C5.12345 4.19131 3.97649 5.4 2.56162 5.4C1.14696 5.4 0 4.19131 0 2.7Z" transform="translate(16.4446 16.2)" fill="white"/>
<mask id="mask1" mask-type="alpha" maskUnits="userSpaceOnUse" x="15" y="15" width="8" height="8">
<path fill-rule="evenodd" clip-rule="evenodd" d="M6.48474 6.83282H0V0H6.48474V6.83282Z" transform="translate(15.9099 15.7349)" fill="white"/>
</mask>
<g mask="url(#mask1)">
<path fill-rule="evenodd" clip-rule="evenodd" d="M3.24249 6.83287C1.45462 6.83287 0 5.30021 0 3.41643C0 1.53265 1.45462 0 3.24249 0C5.03035 0 6.48474 1.53265 6.48474 3.41643C6.48474 5.30021 5.03035 6.83287 3.24249 6.83287ZM3.24316 0.974731C1.96544 0.974731 0.925781 2.07016 0.925781 3.41643C0.925781 4.76294 1.96544 5.85812 3.24316 5.85812C4.52088 5.85812 5.56054 4.76294 5.56054 3.41643C5.56054 2.07016 4.52088 0.974731 3.24316 0.974731Z" transform="translate(15.9099 15.7349)" fill="#001780"/>
</g>
<path fill-rule="evenodd" clip-rule="evenodd" d="M0 2.7C0 1.20892 1.14696 0 2.56162 0C3.97649 0 5.12346 1.20892 5.12346 2.7C5.12346 4.19131 3.97649 5.4 2.56162 5.4C1.14696 5.4 0 4.19131 0 2.7Z" transform="translate(30.1069 16.2)" fill="white"/>
<mask id="mask2" mask-type="alpha" maskUnits="userSpaceOnUse" x="29" y="15" width="8" height="8">
<path fill-rule="evenodd" clip-rule="evenodd" d="M6.48497 6.83282H0L0 0H6.48497V6.83282Z" transform="translate(29.6221 15.7349)" fill="white"/>
</mask>
<g mask="url(#mask2)">
<path fill-rule="evenodd" clip-rule="evenodd" d="M3.24249 6.83287C1.45462 6.83287 0 5.30021 0 3.41643C0 1.53265 1.45462 0 3.24249 0C5.03035 0 6.48497 1.53265 6.48497 3.41643C6.48497 5.30021 5.03035 6.83287 3.24249 6.83287ZM3.24316 0.974731C1.96544 0.974731 0.925781 2.07016 0.925781 3.41643C0.925781 4.76294 1.96544 5.85812 3.24316 5.85812C4.52088 5.85812 5.56054 4.76294 5.56054 3.41643C5.56054 2.07016 4.52088 0.974731 3.24316 0.974731Z" transform="translate(29.6221 15.7349)" fill="#001780"/>
</g>
<path fill-rule="evenodd" clip-rule="evenodd" d="M5.81545 1.2H0.446553C0.200014 1.2 0 0.931325 0 0.600153C0 0.268675 0.200014 0 0.446553 0H5.81545C6.06221 0 6.262 0.268675 6.262 0.600153C6.262 0.931325 6.06221 1.2 5.81545 1.2Z" transform="translate(3.92041 5.99994)" fill="#001780"/>
<path fill-rule="evenodd" clip-rule="evenodd" d="M5.81545 1.2H0.446553C0.200014 1.2 0 0.931325 0 0.600153C0 0.268675 0.200014 0 0.446553 0H5.81545C6.06221 0 6.262 0.268675 6.262 0.600153C6.262 0.931325 6.06221 1.2 5.81545 1.2Z" transform="translate(0.504639 9.59998)" fill="#001780"/>
<path fill-rule="evenodd" clip-rule="evenodd" d="M5.81545 1.2H0.446553C0.200014 1.2 0 0.931326 0 0.600154C0 0.268675 0.200014 0 0.446553 0H5.81545C6.06221 0 6.262 0.268675 6.262 0.600154C6.262 0.931326 6.06221 1.2 5.81545 1.2Z" transform="translate(3.92041 13.2)" fill="#001780"/>
</svg>
