<svg viewBox="0 0 20 20" fill="none" xmlns="http://www.w3.org/2000/svg">
<path d="M3.41527 3.80239C3.4152 3.80244 3.41511 3.80252 3.41502 3.8026M3.41527 3.80239C3.41543 3.80227 3.41551 3.8022 3.4154 3.80229L3.41502 3.8026M3.41527 3.80239L3.41516 3.80248L3.41502 3.8026M3.41527 3.80239L3.41502 3.8026M16.5968 3.81395L16.5962 3.8133C16.5934 3.80975 16.5906 3.80702 16.5886 3.80526C15.008 2.12542 12.7952 1.0484 10.3333 0.958794L10.3328 0.958305L10.3129 0.957776L10.138 0.953133L10.1376 0.953121L10.1375 0.953119C10.0925 0.951576 10.0465 0.95 10 0.95C9.95352 0.95 9.9075 0.951576 9.86246 0.953119L9.86243 0.953121L9.86205 0.953133L9.6877 0.957776L9.66776 0.958308L9.66727 0.958796C7.2059 1.0484 4.99346 2.12502 3.4129 3.80429C3.41075 3.80609 3.40727 3.8093 3.40382 3.81397C1.88378 5.43317 0.95 7.60891 0.95 10C0.95 12.2967 1.81166 14.3952 3.22637 15.9925C3.22778 15.9956 3.22983 15.9994 3.2327 16.0034C3.23961 16.013 3.24757 16.0194 3.25122 16.0223L3.25149 16.0226C3.25424 16.0248 3.25506 16.0255 3.25507 16.0255L3.25556 16.0261C4.84477 17.8027 7.12332 18.9489 9.66693 19.0415L9.66742 19.042L9.68739 19.0425L9.86212 19.0472C9.86969 19.0474 9.87732 19.0476 9.88499 19.0478C9.92281 19.0489 9.96133 19.05 10 19.05C10.0465 19.05 10.0925 19.0484 10.1376 19.0469L10.138 19.0469L10.3123 19.0422L10.3323 19.0417L10.3328 19.0412C12.8784 18.9483 15.1588 17.8006 16.7479 16.0212C16.7508 16.0193 16.7586 16.014 16.7654 16.0052C16.7692 16.0006 16.7717 15.9962 16.7733 15.9928C18.1882 14.3955 19.05 12.2969 19.05 10C19.05 7.60906 18.1163 5.43345 16.5968 3.81398L16.5968 3.81395ZM3.59525 15.3172C2.46653 13.9599 1.76109 12.2399 1.68048 10.3603H5.30493C5.34459 11.6471 5.59566 12.8978 6.03828 14.0722C5.18298 14.3859 4.36432 14.8018 3.59525 15.3172ZM1.68048 9.63966C1.76507 7.66791 2.537 5.872 3.76407 4.48622C4.51416 4.97004 5.3108 5.36032 6.1408 5.65536C5.63188 6.90728 5.34769 8.25365 5.30494 9.63966H1.68048ZM16.2359 4.48622C17.463 5.872 18.2349 7.66791 18.3195 9.63966H14.6951C14.6523 8.25365 14.3681 6.90728 13.8592 5.65536C14.6892 5.36032 15.4858 4.97004 16.2359 4.48622ZM9.63966 1.93126V5.59213C8.7846 5.5639 7.94488 5.43676 7.13216 5.21347C7.74075 3.9827 8.58705 2.86825 9.63966 1.93126ZM6.83067 5.87849C7.73911 6.13782 8.68083 6.28338 9.63966 6.31296V9.63966H6.02576C6.06891 8.32977 6.34394 7.05923 6.83067 5.87849ZM10.3603 6.31296C11.3192 6.28339 12.2609 6.13812 13.1696 5.8785C13.6564 7.05923 13.9314 8.32977 13.9745 9.63966H10.3603V6.31296ZM10.3603 5.59213V1.93126C11.4129 2.86825 12.2593 3.9827 12.8678 5.21347C12.0551 5.43676 11.2154 5.5639 10.3603 5.59213ZM13.5665 4.99494C12.991 3.80142 12.205 2.7099 11.2382 1.76513C12.9618 2.02307 14.5136 2.8106 15.7238 3.95724C15.0407 4.38512 14.3182 4.732 13.5665 4.99494ZM6.43351 4.99494C5.68178 4.732 4.95935 4.38512 4.2765 3.95724C5.48635 2.81062 7.0385 2.02308 8.76204 1.76514C7.79499 2.70991 7.00897 3.80143 6.43351 4.99494ZM6.72155 13.8426C6.3032 12.7417 6.06536 11.568 6.02575 10.3603H9.63966V13.377C8.64162 13.4076 7.66333 13.5635 6.72155 13.8426ZM7.00204 14.5129C7.85436 14.2667 8.73812 14.1275 9.63966 14.0978V18.0687C8.50942 17.0626 7.61789 15.8519 7.00204 14.5129ZM12.9979 14.5126C12.3821 15.8519 11.4906 17.0626 10.3603 18.0687V14.0978C11.2619 14.1272 12.1456 14.2667 12.9979 14.5126ZM13.2782 13.8429C12.3367 13.5635 11.3584 13.4076 10.3603 13.377V10.3603H13.9742C13.9346 11.568 13.6968 12.7417 13.2782 13.8429ZM14.6951 10.3603H18.3195C18.2389 12.2399 17.5338 13.9599 16.4048 15.3172C15.6357 14.8018 14.817 14.3859 13.9617 14.0722C14.4046 12.8978 14.6554 11.6471 14.6951 10.3603ZM6.31378 14.7381C6.89849 16.0346 7.72403 17.2203 8.76178 18.2349C6.94658 17.9631 5.32132 17.1043 4.08579 15.857C4.78891 15.3954 5.53521 15.0215 6.31378 14.7381ZM13.6862 14.7381C14.4648 15.0215 15.2108 15.3954 15.9142 15.857C14.6787 17.1043 13.0534 17.9631 11.2382 18.2349C12.276 17.2205 13.1015 16.0349 13.6862 14.7381Z" fill="#616577" stroke="#616577" stroke-width="0.1"/>
</svg>
