<svg width="32" height="25" viewBox="0 0 32 25" fill="none" xmlns="http://www.w3.org/2000/svg">
<path d="M30.7757 19.383C32.3998 13.3505 31.7002 9.1723 30.6508 6.55164C31.4503 6.23024 32 5.46382 32 4.57379C32 3.38708 31.0256 2.4476 29.8512 2.4476C29.2765 2.4476 28.7768 2.6701 28.3771 3.01623C28.3771 3.01623 24.929 0 15.3345 0C6.53947 0 4.14084 2.54649 3.81602 2.94206C3.44124 2.62066 2.96651 2.42287 2.4418 2.42287C1.24249 2.4476 0.26804 3.4118 0.26804 4.57379C0.26804 5.41438 0.767756 6.15607 1.49234 6.5022C-1.10618 11.8177 0.243054 16.6387 1.3924 19.2099C0.74277 19.5808 0.26804 20.273 0.26804 21.0889C0.26804 22.2756 1.24249 23.2151 2.41682 23.2151C2.99149 23.2151 3.49121 22.9926 3.86599 22.6464C9.43783 26.4044 26.3782 24.9951 28.527 23.0173C28.8768 23.2892 29.3265 23.4623 29.8262 23.4623C31.0256 23.4623 31.975 22.4981 31.975 21.3361C32 20.4708 31.5003 19.7291 30.7757 19.383Z" fill="#FFCB00"/>
<path d="M2.18714 15.5814C1.96226 15.5814 1.76238 15.4578 1.66243 15.26C-1.68566 8.23861 1.03779 0.698037 1.16272 0.376635C1.26266 0.0799572 1.61246 -0.0683823 1.91229 0.0305104C2.21212 0.129403 2.36204 0.475528 2.26209 0.772206C2.23711 0.871099 -0.411386 8.18916 2.73682 14.7655C2.86175 15.0622 2.76181 15.3836 2.46198 15.5319C2.36204 15.5814 2.26209 15.5814 2.18714 15.5814Z" transform="translate(25.7651 5.23553)" fill="#001680"/>
</svg>
