<svg viewBox="0 0 43 51" fill="none" xmlns="http://www.w3.org/2000/svg">
<mask id="mask0" mask-type="alpha" maskUnits="userSpaceOnUse" x="0" y="6" width="43" height="45">
<path fill-rule="evenodd" clip-rule="evenodd" d="M21.2312 50.2206H0V6.22046L42.4623 6.22046V50.2206H21.2312Z" fill="white"/>
</mask>
<g mask="url(#mask0)">
<path fill-rule="evenodd" clip-rule="evenodd" d="M-0.000244141 6.22046V50.2206H42.4622V20.2183C42.4622 12.4877 36.414 6.22046 28.9535 6.22046H-0.000244141Z" fill="#FF7A00"/>
</g>
<path fill-rule="evenodd" clip-rule="evenodd" d="M10.4451 11.2564C9.75242 11.2564 9.19165 10.6917 9.19165 9.9957V1.26065C9.19165 0.564652 9.75242 0 10.4451 0C11.1377 0 11.6985 0.564652 11.6985 1.26065V9.9957C11.6985 10.6917 11.1377 11.2564 10.4451 11.2564Z" fill="#001780"/>
<path fill-rule="evenodd" clip-rule="evenodd" d="M31.3355 11.2564C30.6428 11.2564 30.082 10.6917 30.082 9.9957V1.26065C30.082 0.564652 30.6428 0 31.3355 0C32.0281 0 32.5889 0.564652 32.5889 1.26065V9.9957C32.5889 10.6917 32.0281 11.2564 31.3355 11.2564Z" fill="#001780"/>
<path fill-rule="evenodd" clip-rule="evenodd" d="M18.7385 28.2131C21.5524 28.5979 23.3972 30.8349 23.3972 33.3361C23.3972 36.9201 20.6307 38.9643 17.4378 38.9643C15.664 38.9643 14.2212 38.3634 13.3699 37.7144V35.2847H13.5357C14.316 36.0301 15.7581 36.6799 17.2483 36.6799C19.4011 36.6799 20.8906 35.2365 20.8906 33.4084C20.8906 31.3882 19.353 30.1617 17.2483 30.1617C16.4206 30.1617 15.593 30.3537 15.1436 30.5465H15.0259V29.0308L17.9109 26.0966C18.3839 25.6155 18.8799 25.1585 19.4011 24.7249H13.3699V22.5127H22.5459V24.2444L18.7385 28.2131Z" fill="white"/>
<path fill-rule="evenodd" clip-rule="evenodd" d="M25.0684 24.7461L28.8928 22.5127H30.9177V38.0984H28.2927V25.3971L25.2436 27.1885H25.0684V24.7461Z" fill="white"/>
</svg>